HIERARCHY
ROOT Pelvis
{
	OFFSET 0.000000 0.941512 0.000000
	CHANNELS 6 Xposition Yposition Zposition Zrotation Yrotation Xrotation 
	JOINT Pelvis_L_Hip
	{
		OFFSET 0.000000 0.000000 0.000000
		CHANNELS 3 Zrotation Yrotation Xrotation
		JOINT L_Hip
		{
			OFFSET 0.062321 -0.080322 -0.016990
			CHANNELS 3 Zrotation Yrotation Xrotation
			JOINT L_Knee
			{
				OFFSET 0.093051 -0.381305 -0.029784
				CHANNELS 3 Zrotation Yrotation Xrotation
				JOINT L_Ankle
				{
					OFFSET -0.010371 -0.431000 -0.033614
					CHANNELS 3 Zrotation Yrotation Xrotation
					End Site #name: L_Foot
					{
						OFFSET 0.069299 -0.038670 0.119418
					}
				}
			}
		}
	}
	JOINT Pelvis_R_Hip
	{
		OFFSET 0.000000 0.000000 0.000000
		CHANNELS 3 Zrotation Yrotation Xrotation
		JOINT R_Hip
		{
			OFFSET -0.055334 -0.094904 -0.002373
			CHANNELS 3 Zrotation Yrotation Xrotation
			JOINT R_Knee
			{
				OFFSET -0.064207 -0.384370 -0.019592
				CHANNELS 3 Zrotation Yrotation Xrotation
				JOINT R_Ankle
				{
					OFFSET 0.025418 -0.419734 -0.065953
					CHANNELS 3 Zrotation Yrotation Xrotation
					End Site #name: R_Foot
					{
						OFFSET -0.057233 -0.039888 0.132134
					}
				}
			}
		}
	}
	JOINT Pelvis_Spine1
	{
		OFFSET 0.000000 0.000000 0.000000
		CHANNELS 3 Zrotation Yrotation Xrotation
		JOINT Spine1
		{
			OFFSET -0.005562 0.124093 -0.043360
			CHANNELS 3 Zrotation Yrotation Xrotation
			JOINT Spine2
			{
				OFFSET 0.012244 0.139499 0.029894
				CHANNELS 3 Zrotation Yrotation Xrotation
				JOINT Spine3
				{
					OFFSET -0.002556 0.056561 0.009225
					CHANNELS 3 Zrotation Yrotation Xrotation
					JOINT Spine3_Neck
					{
						OFFSET 0.000000 0.000000 0.000000
						CHANNELS 3 Zrotation Yrotation Xrotation
						JOINT Neck
						{
							OFFSET -0.005205 0.217920 -0.024551
							CHANNELS 3 Zrotation Yrotation Xrotation
							End Site #name: Head
							{
								OFFSET 0.002365 0.091850 0.046637
							}
						}
					}
					JOINT Spine3_L_Collar
					{
						OFFSET 0.000000 0.000000 0.000000
						CHANNELS 3 Zrotation Yrotation Xrotation
						JOINT L_Collar
						{
							OFFSET 0.072225 0.116603 -0.009480
							CHANNELS 3 Zrotation Yrotation Xrotation
							JOINT L_Shoulder
							{
								OFFSET 0.115937 -0.058643 -0.021018
								CHANNELS 3 Zrotation Yrotation Xrotation
								JOINT L_Elbow
								{
									OFFSET 0.021994 -0.254722 -0.024492
									CHANNELS 3 Zrotation Yrotation Xrotation
									End Site #name: L_Wrist
									{
										OFFSET 0.048810 -0.240214 0.103329
									}
								}
							}
						}
					}
					JOINT Spine3_R_Collar
					{
						OFFSET 0.000000 0.000000 0.000000
						CHANNELS 3 Zrotation Yrotation Xrotation
						JOINT R_Collar
						{
							OFFSET -0.073372 0.120704 -0.024611
							CHANNELS 3 Zrotation Yrotation Xrotation
							JOINT R_Shoulder
							{
								OFFSET -0.108089 -0.054969 -0.020504
								CHANNELS 3 Zrotation Yrotation Xrotation
								JOINT R_Elbow
								{
									OFFSET -0.033684 -0.260739 0.009889
									CHANNELS 3 Zrotation Yrotation Xrotation
									End Site #name: R_Wrist
									{
										OFFSET -0.067980 -0.232763 0.118463
									}
								}
							}
						}
					}
				}
			}
		}
	}
}
MOTION
Frames: 15
Frame Time: 0.041667
0.463462 0.759776 -0.618021 3.222848 -40.269904 -5.667242 0.000000 0.000000 0.000000 11.442522 -0.451654 -42.188634 27.236617 -7.319913 36.311472 -25.189220 -43.972817 15.399169 0.000000 0.000000 0.000000 -41.870300 6.571169 -11.313619 70.793676 -10.958278 15.648488 -36.552465 -71.972142 1.845991 0.000000 0.000000 0.000000 22.180421 -5.180740 11.106825 -16.614324 2.361783 -5.467936 -6.589430 -18.108861 9.076113 0.000000 0.000000 0.000000 -1.991460 1.340521 1.556995 0.000000 0.000000 0.000000 22.683113 -17.063656 -16.205731 -10.523024 -0.995905 -14.591299 18.745578 8.836156 -71.092060 0.000000 0.000000 0.000000 -25.563324 8.060508 7.661363 8.174865 0.934955 -3.782200 -7.759660 7.064115 -42.963760 
0.467140 0.742510 -0.622642 3.475991 -40.412756 -4.992916 0.000000 0.000000 0.000000 14.321122 0.423237 -39.168026 25.193763 -6.100295 30.281286 -22.534815 -47.852933 10.328577 0.000000 0.000000 0.000000 -44.209703 6.648041 -13.639320 74.709840 -11.958623 14.967189 -37.113312 -73.331137 0.929808 0.000000 0.000000 0.000000 20.787518 -4.868904 10.562542 -14.644114 1.925031 -5.957485 -5.492364 -17.964771 8.578107 0.000000 0.000000 0.000000 -3.220054 1.960365 1.290148 0.000000 0.000000 0.000000 24.471343 -15.994153 -16.042166 -7.644588 -1.812594 -19.586668 23.356741 14.745281 -62.683639 0.000000 0.000000 0.000000 -22.948045 5.883760 8.276746 8.928393 1.059652 -3.721152 -8.391754 6.604468 -42.897906 
0.472961 0.733584 -0.627193 3.256891 -39.975907 -3.946510 0.000000 0.000000 0.000000 17.361000 1.483483 -38.271359 18.488548 -4.271393 27.160156 -17.540569 -44.241687 5.634929 0.000000 0.000000 0.000000 -45.060982 6.319917 -15.746893 76.475497 -12.729279 14.813589 -38.766406 -74.436477 2.127265 0.000000 0.000000 0.000000 20.443937 -5.008530 11.625860 -13.795841 1.579562 -7.537967 -4.535494 -18.188239 7.802039 0.000000 0.000000 0.000000 -3.888869 2.310280 1.228181 0.000000 0.000000 0.000000 26.377831 -16.976589 -17.510122 -3.548884 -1.810564 -20.646386 27.588349 18.517775 -53.929087 0.000000 0.000000 0.000000 -20.976706 4.234485 8.473717 11.468661 1.132189 -2.855969 -9.515523 5.243783 -41.927617 
0.479868 0.731203 -0.631834 3.282068 -39.251884 -2.999575 0.000000 0.000000 0.000000 19.050191 2.092901 -38.588656 14.397025 -3.199099 24.370071 -19.269135 -42.609961 8.590385 0.000000 0.000000 0.000000 -45.383768 5.878361 -17.638858 76.714874 -13.275991 14.913437 -40.603500 -75.071962 4.155666 0.000000 0.000000 0.000000 19.832485 -5.129546 12.900865 -12.752849 1.327638 -8.235556 -3.848459 -18.565900 6.746879 0.000000 0.000000 0.000000 -4.184708 2.342163 0.585406 0.000000 0.000000 0.000000 27.086120 -17.442584 -18.067024 -0.615969 -1.615223 -20.108846 31.477695 21.982776 -50.316387 0.000000 0.000000 0.000000 -19.883499 2.804864 8.941312 14.557257 1.249354 -2.194719 -10.047183 4.487810 -41.065289 
0.486976 0.734885 -0.635925 3.618980 -39.318066 -2.797329 0.000000 0.000000 0.000000 19.432037 2.108269 -37.556903 12.816802 -2.704800 21.248044 -20.547520 -40.745752 11.071056 0.000000 0.000000 0.000000 -45.695263 5.720441 -18.878163 76.063972 -13.170137 14.837921 -41.942888 -75.057768 6.344944 0.000000 0.000000 0.000000 19.817989 -5.227348 13.761948 -12.817973 1.323086 -8.351034 -3.761253 -18.534645 6.392639 0.000000 0.000000 0.000000 -4.494473 2.570953 0.903700 0.000000 0.000000 0.000000 27.449160 -16.981881 -17.730532 1.758711 -1.549041 -21.220745 34.376063 23.602699 -45.270628 0.000000 0.000000 0.000000 -19.636142 2.383829 9.105269 18.098562 1.362950 -1.676978 -9.727060 4.422046 -39.766588 
0.493094 0.740161 -0.637950 4.066954 -39.749469 -2.907964 0.000000 0.000000 0.000000 19.714443 1.948662 -35.112607 11.557281 -2.256540 16.702216 -21.024778 -38.921295 12.550434 0.000000 0.000000 0.000000 -45.987336 5.771910 -19.386345 74.914924 -12.674952 14.588876 -42.292213 -74.554615 7.760940 0.000000 0.000000 0.000000 20.411060 -5.285749 13.554033 -13.573633 1.457737 -8.228772 -4.056465 -18.547244 6.504615 0.000000 0.000000 0.000000 -4.801828 2.884108 1.590009 0.000000 0.000000 0.000000 27.685841 -16.764575 -17.700055 3.451958 -1.418623 -21.018073 36.262459 23.949552 -39.989109 0.000000 0.000000 0.000000 -20.000197 2.501579 9.289079 19.866991 1.184190 -0.845990 -7.946085 6.002852 -38.973275 
0.500609 0.746474 -0.638964 3.824688 -40.116154 -1.934952 0.000000 0.000000 0.000000 20.404676 2.056451 -33.551373 10.198525 -1.838479 12.443187 -21.476409 -37.444888 13.889179 0.000000 0.000000 0.000000 -46.074063 5.839161 -19.695538 74.092292 -11.379674 12.874282 -43.172230 -74.424569 9.350979 0.000000 0.000000 0.000000 22.188948 -5.443458 12.225240 -14.821938 1.631794 -8.551585 -4.389158 -18.861136 6.759579 0.000000 0.000000 0.000000 -5.212449 3.429840 2.958123 0.000000 0.000000 0.000000 27.392586 -16.889712 -17.862864 4.231296 -1.281026 -19.013351 37.698782 24.649237 -37.584363 0.000000 0.000000 0.000000 -20.650039 2.645847 9.694990 19.560660 0.846131 -0.018432 -5.523571 8.883564 -39.939820 
0.508009 0.751889 -0.636373 4.081528 -40.332405 -1.666335 0.000000 0.000000 0.000000 20.650808 2.000264 -32.244702 8.718681 -1.484152 9.767042 -20.717316 -35.869324 13.739431 0.000000 0.000000 0.000000 -46.589025 5.994869 -19.571521 73.046526 -10.512326 11.710881 -43.477718 -74.026786 10.525818 0.000000 0.000000 0.000000 24.315628 -5.580242 10.877139 -16.857456 1.911728 -9.084703 -4.969278 -19.550717 7.575221 0.000000 0.000000 0.000000 -5.330157 3.607588 3.348830 0.000000 0.000000 0.000000 27.051610 -16.914743 -17.943212 4.102146 -1.175305 -16.214761 37.558627 24.985120 -38.725999 0.000000 0.000000 0.000000 -21.366748 2.358558 10.544555 18.746637 0.555584 0.523772 -4.088419 11.151670 -41.824771 
0.517474 0.757071 -0.632434 5.096623 -40.646025 -2.149019 0.000000 0.000000 0.000000 19.806161 1.747216 -32.406385 8.094275 -1.393977 10.256620 -18.918470 -34.270548 12.199915 0.000000 0.000000 0.000000 -47.748519 6.158990 -19.947396 71.618480 -10.406796 11.698007 -42.466809 -72.892183 10.969904 0.000000 0.000000 0.000000 25.827326 -5.584164 9.882738 -18.695155 2.218553 -9.282515 -5.475338 -20.016887 8.414905 0.000000 0.000000 0.000000 -5.613723 3.767159 3.247288 0.000000 0.000000 0.000000 26.567828 -16.948193 -17.943699 2.564458 -1.149100 -15.029866 36.810577 24.954567 -40.556363 0.000000 0.000000 0.000000 -21.985408 2.195583 11.215052 17.461725 0.348541 0.826958 -3.492593 12.770397 -44.141647 
0.527656 0.763201 -0.624596 5.545696 -40.811621 -3.442894 0.000000 0.000000 0.000000 18.278788 1.403083 -33.935169 8.730752 -1.595673 14.970142 -16.177620 -32.666736 9.255761 0.000000 0.000000 0.000000 -47.955318 6.335718 -19.285266 69.418048 -10.649304 13.001001 -40.722015 -71.315915 10.924717 0.000000 0.000000 0.000000 28.040463 -5.898908 10.278360 -19.923180 2.464243 -9.022230 -6.100533 -20.292166 8.511574 0.000000 0.000000 0.000000 -5.688242 3.775872 3.130506 0.000000 0.000000 0.000000 25.618677 -17.982252 -18.425022 0.734160 -1.118496 -14.432037 38.456612 26.119709 -39.049207 0.000000 0.000000 0.000000 -23.158396 2.807333 11.362277 15.969112 0.233787 0.807930 -2.852175 14.036480 -45.481592 
0.539205 0.768142 -0.613187 5.915178 -40.987734 -4.520369 0.000000 0.000000 0.000000 16.377021 1.064300 -36.769867 9.754774 -1.799280 21.792213 -13.374803 -30.959744 6.094181 0.000000 0.000000 0.000000 -48.618726 6.633909 -18.438637 67.566804 -10.711904 13.729401 -38.756927 -69.565667 10.704634 0.000000 0.000000 0.000000 30.218102 -6.110066 10.293138 -20.648928 2.666096 -8.532417 -6.756461 -20.161758 8.490381 0.000000 0.000000 0.000000 -6.005977 3.998712 3.310865 0.000000 0.000000 0.000000 24.162584 -19.434647 -19.001782 0.093682 -1.044839 -13.680191 39.629352 27.188219 -38.310970 0.000000 0.000000 0.000000 -24.186816 4.708561 10.164726 13.887686 0.083005 1.100032 -1.749918 15.271288 -45.477064 
0.550286 0.768907 -0.597800 6.030400 -41.263841 -5.422359 0.000000 0.000000 0.000000 15.504859 1.053300 -38.822674 9.512099 -1.568016 27.282402 -10.229454 -27.040991 3.326840 0.000000 0.000000 0.000000 -49.825013 7.154311 -17.209988 66.438034 -10.609382 13.717981 -37.062291 -68.126558 10.237018 0.000000 0.000000 0.000000 32.222201 -6.304460 10.475182 -21.442521 2.861720 -8.220479 -6.887839 -19.847231 8.110604 0.000000 0.000000 0.000000 -6.187847 4.137616 3.498165 0.000000 0.000000 0.000000 23.128633 -20.487438 -19.338176 -0.172054 -0.962721 -12.752244 39.397076 27.736437 -40.066790 0.000000 0.000000 0.000000 -25.400518 7.234660 8.368672 12.125976 -0.046916 1.443851 0.136859 16.966786 -44.530808 
0.559659 0.764441 -0.578621 5.616527 -41.462088 -5.716513 0.000000 0.000000 0.000000 15.610549 1.515009 -41.280076 9.022190 -1.127694 33.269721 -6.460612 -21.357287 0.065467 0.000000 0.000000 0.000000 -51.315763 7.821446 -15.724727 66.400094 -10.544551 13.131481 -35.696396 -66.897685 9.986012 0.000000 0.000000 0.000000 33.436736 -6.433482 10.654628 -21.996668 2.871364 -8.708808 -6.290021 -19.293921 7.913717 0.000000 0.000000 0.000000 -6.068173 4.136746 3.857632 0.000000 0.000000 0.000000 22.826807 -20.719155 -19.236375 -1.289762 -0.878357 -12.065238 37.093617 27.683177 -46.535156 0.000000 0.000000 0.000000 -26.708106 9.812953 6.417260 11.184740 0.004424 1.068977 2.848316 18.932674 -42.425056 
0.568597 0.755775 -0.557905 4.967919 -41.416080 -5.710890 0.000000 0.000000 0.000000 16.302759 2.320429 -44.222876 7.618957 -0.182259 39.964343 -3.077055 -16.300510 -3.305225 0.000000 0.000000 0.000000 -52.992371 8.490273 -14.353003 67.056781 -10.801918 12.640662 -34.341550 -65.709241 9.649182 0.000000 0.000000 0.000000 33.652233 -6.666857 11.460120 -22.346562 2.718804 -9.804808 -5.332481 -18.395464 7.772565 0.000000 0.000000 0.000000 -6.319409 4.158784 3.413185 0.000000 0.000000 0.000000 23.269150 -20.445848 -18.903941 -3.860823 -0.930078 -13.155598 32.901921 25.531599 -54.854309 0.000000 0.000000 0.000000 -27.162289 11.971551 4.200169 11.677339 0.263672 0.041385 5.996443 20.895782 -39.537130 
0.576537 0.744504 -0.535133 3.227328 -40.987271 -5.373196 0.000000 0.000000 0.000000 17.593519 3.449368 -47.446223 5.976328 1.008832 47.517953 0.095728 -11.856188 -6.837165 0.000000 0.000000 0.000000 -53.385385 8.823247 -12.881704 67.397969 -11.649374 13.696541 -32.954758 -64.570681 8.980842 0.000000 0.000000 0.000000 33.304487 -7.341100 14.049407 -22.221498 2.283873 -11.756752 -3.771015 -16.885567 7.161446 0.000000 0.000000 0.000000 -8.280012 5.105298 2.545815 0.000000 0.000000 0.000000 23.578237 -20.902856 -18.883584 -8.740494 -1.124660 -14.926525 28.052809 21.706816 -64.900421 0.000000 0.000000 0.000000 -27.362756 14.268943 1.362026 14.321060 0.563302 -0.690425 8.560620 21.747520 -36.099082 
